<?xml version="1.0" standalone="no"?>
<!DOCTYPE svg PUBLIC "-//W3C//DTD SVG 20010904//EN"
 "http://www.w3.org/TR/2001/REC-SVG-20010904/DTD/svg10.dtd">
<svg version="1.0" xmlns="http://www.w3.org/2000/svg"
 width="200.000000pt" height="200.000000pt" viewBox="0 0 200.000000 200.000000"
 preserveAspectRatio="xMidYMid meet">
<metadata>
Created by potrace 1.11, written by Peter Selinger 2001-2013
</metadata>
<g transform="translate(0.000000,200.000000) scale(0.100000,-0.100000)"
fill="#000000" stroke="none">
<path d="M558 1399 c-139 -21 -245 -89 -317 -204 -147 -233 -27 -554 238 -636
205 -63 420 28 516 219 14 27 25 52 25 55 0 3 -15 14 -33 25 -46 27 -77 91
-67 138 10 45 34 81 70 102 l28 18 -26 52 c-76 155 -265 256 -434 231z m166
-194 c94 -45 141 -124 141 -235 0 -86 -16 -128 -72 -183 -48 -49 -97 -70 -170
-75 -74 -5 -117 8 -176 53 -152 116 -126 354 48 440 42 21 61 25 120 22 43 -2
85 -10 109 -22z"/>
<path d="M1528 1405 c-2 -2 -25 -5 -53 -8 -133 -14 -263 -107 -325 -233 l-30
-58 31 -32 c56 -58 53 -150 -7 -202 l-26 -23 21 -53 c25 -61 94 -143 155 -185
97 -67 246 -90 359 -57 62 19 157 72 157 88 0 7 -19 43 -41 80 l-42 69 -21
-20 c-64 -60 -191 -79 -276 -40 -206 93 -209 380 -5 475 89 42 215 25 281 -37
l21 -20 42 70 c22 38 41 74 41 79 0 13 -66 55 -118 75 -38 15 -157 38 -164 32z"/>
</g>
</svg>
